<svg width="24" height="24" viewBox="0 0 24 24" fill="none" xmlns="http://www.w3.org/2000/svg">
<path d="M14.2929 20.7071C14.6834 21.0976 15.3166 21.0976 15.7071 20.7071C16.0976 20.3166 16.0976 19.6834 15.7071 19.2929L14.2929 20.7071ZM15.7071 4.70711C16.0976 4.31658 16.0976 3.68342 15.7071 3.29289C15.3166 2.90237 14.6834 2.90237 14.2929 3.29289L15.7071 4.70711ZM7.70711 11.2929L8.41422 12L7.70711 11.2929ZM15.7071 19.2929L8.41422 12L7 13.4142L14.2929 20.7071L15.7071 19.2929ZM8.41422 12L15.7071 4.70711L14.2929 3.29289L7 10.5858L8.41422 12ZM8.41422 12L8.41422 12L7 10.5858C6.21895 11.3668 6.21895 12.6332 7 13.4142L8.41422 12Z" fill="white"/>
</svg>
