<svg width="174" height="38" viewBox="0 0 174 38" fill="none" xmlns="http://www.w3.org/2000/svg">
<rect x="121.156" y="7.73392" width="52.8444" height="21.5692" rx="6.74036" fill="#7E48D9"/>
<path d="M132.137 23.7339H135.454C135.928 23.7339 136.367 23.6747 136.771 23.5562C137.179 23.4333 137.53 23.2534 137.824 23.0164C138.118 22.7839 138.348 22.4942 138.515 22.1476C138.682 21.8009 138.763 21.3994 138.758 20.943C138.758 20.6841 138.721 20.4383 138.647 20.2058C138.576 19.9688 138.471 19.7538 138.331 19.5607C138.195 19.3808 138.026 19.2206 137.824 19.0802C137.622 18.9354 137.378 18.8257 137.093 18.7511V18.7379C137.286 18.6589 137.455 18.5711 137.6 18.4746C137.749 18.3737 137.883 18.2574 138.001 18.1257C138.168 17.9458 138.295 17.7396 138.383 17.507C138.475 17.27 138.524 17.0155 138.528 16.7434C138.528 16.2958 138.443 15.9097 138.271 15.5849C138.105 15.2558 137.872 14.9859 137.574 14.7753C137.275 14.5647 136.922 14.4089 136.514 14.3079C136.106 14.2026 135.669 14.15 135.204 14.15H132.137V23.7339ZM133.73 19.4027H135.546C135.805 19.4071 136.036 19.4466 136.237 19.5212C136.439 19.5914 136.61 19.6923 136.751 19.824C136.891 19.9556 136.997 20.1158 137.067 20.3045C137.137 20.4888 137.172 20.7016 137.172 20.943C137.172 21.1712 137.128 21.3796 137.04 21.5683C136.957 21.7526 136.836 21.9084 136.678 22.0357C136.534 22.1585 136.358 22.2551 136.152 22.3253C135.946 22.3955 135.717 22.4306 135.467 22.4306H133.73V19.4027ZM133.73 18.1981V15.4599H135.224C135.496 15.4642 135.744 15.4972 135.968 15.5586C136.191 15.6156 136.378 15.71 136.527 15.8416C136.659 15.947 136.76 16.083 136.83 16.2497C136.904 16.4121 136.942 16.6052 136.942 16.829C136.942 17.0396 136.902 17.2261 136.823 17.3885C136.744 17.5509 136.637 17.6891 136.501 17.8032C136.351 17.9304 136.167 18.027 135.948 18.0928C135.733 18.1586 135.496 18.1937 135.237 18.1981H133.73ZM145.881 19.4356V18.1586H141.918V15.4599H146.513V14.15H140.332V23.7339H146.545V22.4306H141.918V19.4356H145.881ZM155.142 15.4599V14.15H147.678V15.4599H150.613V23.7339H152.187V15.4599H155.142ZM161.092 21.5288L161.738 23.7339H163.377L160.309 14.15H158.907L155.787 23.7339H157.433L158.084 21.5288H161.092ZM158.486 20.1728L159.605 16.3814L160.704 20.1728H158.486Z" fill="white"/>
<path d="M41.4806 8.86481H37.2234V16.4131C36.1063 15.0242 34.5362 14.2996 32.5435 14.2996C31.1546 14.2996 29.9167 14.6317 28.8297 15.2959C27.7428 15.9602 26.8672 16.866 26.2633 18.0737C25.6594 19.2814 25.3575 20.6401 25.3575 22.2102C25.3575 23.8104 25.6594 25.1993 26.2633 26.407C26.8672 27.6147 27.7428 28.5507 28.8297 29.215C29.9167 29.8792 31.1244 30.1812 32.5133 30.1812C34.5362 30.1812 36.1365 29.4263 37.3442 27.8563L37.7669 30H41.4806V8.86481ZM36.2572 25.5012C35.5628 26.3164 34.657 26.7089 33.5097 26.7089C32.3623 26.7089 31.4263 26.3164 30.7319 25.471C30.0374 24.6558 29.7053 23.5689 29.7053 22.2404C29.7053 20.9119 30.0374 19.8551 30.7319 19.0097C31.4263 18.1945 32.3623 17.7718 33.5097 17.7718C34.657 17.7718 35.5628 18.1945 36.2572 19.0097C36.9215 19.8551 37.2838 20.9421 37.2838 22.2706C37.2838 23.5991 36.9215 24.686 36.2572 25.5012ZM47.7096 29.215C48.9475 29.8792 50.3968 30.1812 52.0272 30.1812C53.6577 30.1812 55.0767 29.8792 56.3147 29.215C57.5526 28.5507 58.5188 27.6449 59.183 26.4372C59.8473 25.2295 60.2096 23.8406 60.2096 22.2404C60.2096 20.6703 59.8473 19.2814 59.183 18.0737C58.5188 16.866 57.5526 15.9602 56.3147 15.2959C55.0767 14.6317 53.6577 14.2996 52.0272 14.2996C50.3968 14.2996 48.9475 14.6317 47.7096 15.2959C46.4717 15.9602 45.5055 16.866 44.8413 18.0737C44.177 19.2814 43.8449 20.6703 43.8449 22.2404C43.8449 23.8104 44.177 25.1993 44.8413 26.407C45.5055 27.6147 46.4717 28.5507 47.7096 29.215ZM54.8352 25.471C54.1408 26.3164 53.2048 26.7089 52.0272 26.7089C50.8497 26.7089 49.9137 26.3164 49.2193 25.471C48.5248 24.6558 48.1927 23.5689 48.1927 22.2404C48.1927 20.9119 48.5248 19.8551 49.2193 19.0097C49.9137 18.1945 50.8497 17.7718 52.0272 17.7718C53.2048 17.7718 54.1408 18.1945 54.8352 19.0097C55.5296 19.8551 55.892 20.9119 55.892 22.2404C55.892 23.5689 55.5296 24.6558 54.8352 25.471ZM72.0033 14.4807H71.2787C70.1313 14.4807 69.1953 14.6921 68.5311 15.0846C67.8366 15.4771 67.263 16.0508 66.8101 16.8056L66.4176 14.4807H62.5528V30H66.8101V22.3913C66.8101 21.1534 67.0818 20.157 67.6555 19.4324C68.199 18.7078 69.1048 18.3455 70.3125 18.3455H72.0033V14.4807ZM77.0821 24.837H73.0362C73.0966 26.4976 73.8212 27.7959 75.1799 28.7621C76.5084 29.7283 78.2596 30.1812 80.4335 30.1812C81.8224 30.1812 83.0302 30 84.0869 29.5773C85.1437 29.1546 85.9589 28.5809 86.5627 27.7959C87.1666 27.0411 87.4685 26.1655 87.4685 25.1389C87.4685 23.5689 86.8949 22.4517 85.7777 21.7875C84.6606 21.1232 83.0603 20.6703 80.977 20.4288C79.9806 20.3382 79.2862 20.2476 78.8635 20.157C78.4408 20.0967 78.0785 19.9457 77.8369 19.7645C77.5652 19.5834 77.4444 19.3116 77.4444 18.9493C77.4444 18.4662 77.686 18.0435 78.1691 17.7416C78.6521 17.4397 79.3164 17.2887 80.1316 17.2887C80.977 17.2887 81.7017 17.5 82.2451 17.8624C82.7886 18.2247 83.1207 18.7078 83.1811 19.2814H87.227C87.1062 17.7114 86.4118 16.5037 85.1135 15.5979C83.8152 14.7223 82.1244 14.2694 80.0108 14.2392C78.6823 14.2392 77.535 14.4505 76.5386 14.8732C75.5121 15.2959 74.727 15.8998 74.1836 16.6848C73.6401 17.4699 73.3684 18.3455 73.3684 19.3418C73.3684 20.3684 73.6401 21.1534 74.1836 21.7573C74.727 22.3611 75.4517 22.814 76.3575 23.0858C77.2633 23.3877 78.3804 23.5991 79.7693 23.7802C80.7657 23.901 81.4903 24.0218 81.9432 24.1123C82.3659 24.2029 82.7282 24.3539 82.9698 24.535C83.2113 24.7464 83.3321 25.0483 83.3321 25.4408C83.3321 25.9843 83.0603 26.407 82.5471 26.7089C82.0036 27.0109 81.3091 27.1317 80.4033 27.1317C79.4372 27.1317 78.6823 26.9203 78.0785 26.4976C77.4746 26.0749 77.1425 25.5314 77.0821 24.837ZM90.2777 18.0737C89.6134 19.2814 89.3115 20.6703 89.3115 22.2706C89.3115 23.8708 89.6436 25.2597 90.3079 26.4674C90.9721 27.6751 91.9383 28.5809 93.2064 29.215C94.4745 29.8792 95.954 30.1812 97.7052 30.1812C99.0337 30.1812 100.211 29.9698 101.238 29.4867C102.264 29.0036 103.08 28.3696 103.714 27.5242C104.317 26.7089 104.71 25.773 104.891 24.7464H100.694C100.513 25.471 100.121 26.0447 99.547 26.407C98.9733 26.7693 98.2487 26.9505 97.4033 26.9505C96.3163 26.9505 95.4407 26.6486 94.8368 25.9843C94.2028 25.3503 93.8405 24.4747 93.7499 23.3273V23.2065H105.012C105.072 22.7838 105.133 22.3008 105.133 21.7573C105.103 20.2476 104.74 18.9493 104.076 17.8322C103.412 16.715 102.476 15.8394 101.268 15.2356C100.06 14.6317 98.7016 14.2996 97.1315 14.2996C95.5615 14.2996 94.2028 14.6317 93.0253 15.2959C91.8477 15.9602 90.9419 16.866 90.2777 18.0737ZM100.875 20.4288H93.8405C93.9612 19.523 94.3236 18.8285 94.9576 18.2851C95.5917 17.7416 96.3767 17.4699 97.3127 17.4699C98.2789 17.4699 99.0639 17.7416 99.6979 18.2549C100.332 18.7682 100.724 19.4928 100.875 20.4288ZM105.101 34.1063H117.299V30.1812H105.101V34.1063Z" fill="white"/>
<path d="M17.9025 19.5192C17.9025 19.6817 17.9025 19.8442 17.9025 20.088C17.9025 23.9888 14.7575 27.2395 10.8062 27.2395C7.9031 27.2395 5.32261 25.4516 4.27429 22.8511C4.27429 22.6886 4.27429 22.6073 4.27429 22.4448C4.27429 18.544 7.41925 15.2933 11.3706 15.2933C14.2737 15.2933 16.7735 16.9999 17.9025 19.5192L17.8218 4.8912C7.98373 4.8912 0.000366211 12.9366 0.000366211 22.8511H4.113V37.4791C13.9511 37.4791 21.9345 29.4337 21.9345 19.5192H17.9025Z" fill="url(#paint0_linear_4761_20778)"/>
<defs>
<linearGradient id="paint0_linear_4761_20778" x1="10.9674" y1="4.8912" x2="10.9674" y2="37.4791" gradientUnits="userSpaceOnUse">
<stop stop-color="#5660E5"/>
<stop offset="1" stop-color="#B028C8"/>
</linearGradient>
</defs>
</svg>
