<svg width="176" height="37" viewBox="0 0 176 37" fill="none" xmlns="http://www.w3.org/2000/svg">
<rect x="122.868" y="9.88037" width="52.1698" height="21.2938" rx="6.6543" fill="#7E48D9"/>
<path d="M133.718 25.6768H136.994C137.461 25.6768 137.895 25.6183 138.293 25.5013C138.696 25.38 139.043 25.2024 139.333 24.9684C139.623 24.7388 139.851 24.4529 140.015 24.1107C140.18 23.7684 140.26 23.372 140.256 22.9215C140.256 22.6659 140.219 22.4233 140.145 22.1936C140.076 21.9597 139.972 21.7474 139.833 21.5568C139.699 21.3792 139.532 21.2211 139.333 21.0824C139.134 20.9395 138.893 20.8312 138.612 20.7575V20.7445C138.802 20.6665 138.969 20.5799 139.112 20.4846C139.259 20.3849 139.391 20.2701 139.508 20.1402C139.673 19.9625 139.799 19.7589 139.885 19.5293C139.976 19.2954 140.024 19.0441 140.028 18.7755C140.028 18.3336 139.944 17.9524 139.775 17.6318C139.61 17.3069 139.381 17.0405 139.086 16.8325C138.791 16.6246 138.443 16.4708 138.04 16.3711C137.637 16.2672 137.206 16.2152 136.747 16.2152H133.718V25.6768ZM135.291 21.4008H137.084C137.34 21.4052 137.568 21.4442 137.767 21.5178C137.966 21.5871 138.135 21.6868 138.274 21.8167C138.412 21.9467 138.516 22.1048 138.586 22.2911C138.655 22.4731 138.69 22.6832 138.69 22.9215C138.69 23.1467 138.646 23.3525 138.56 23.5388C138.477 23.7208 138.358 23.8746 138.202 24.0002C138.059 24.1215 137.886 24.2168 137.682 24.2861C137.479 24.3554 137.253 24.3901 137.007 24.3901H135.291V21.4008ZM135.291 20.2116V17.5083H136.766C137.035 17.5127 137.279 17.5452 137.5 17.6058C137.721 17.6621 137.905 17.7553 138.053 17.8852C138.183 17.9892 138.282 18.1235 138.352 18.2881C138.425 18.4484 138.462 18.6391 138.462 18.86C138.462 19.0679 138.423 19.2521 138.345 19.4124C138.267 19.5726 138.161 19.7091 138.027 19.8217C137.879 19.9474 137.698 20.0427 137.481 20.1077C137.269 20.1727 137.035 20.2073 136.779 20.2116H135.291ZM147.287 21.4333V20.1727H143.375V17.5083H147.911V16.2152H141.809V25.6768H147.943V24.3901H143.375V21.4333H147.287ZM156.43 17.5083V16.2152H149.061V17.5083H151.959V25.6768H153.512V17.5083H156.43ZM162.305 23.4998L162.941 25.6768H164.559L161.531 16.2152H160.147L157.067 25.6768H158.691L159.335 23.4998H162.305ZM159.731 22.1612L160.836 18.4181L161.921 22.1612H159.731Z" fill="white"/>
<path d="M43.1626 9.13466H38.9597V16.5866C37.8568 15.2154 36.3068 14.5 34.3395 14.5C32.9683 14.5 31.7462 14.8279 30.6732 15.4837C29.6001 16.1394 28.7357 17.0337 28.1395 18.226C27.5434 19.4183 27.2453 20.7596 27.2453 22.3096C27.2453 23.8894 27.5434 25.2606 28.1395 26.4529C28.7357 27.6452 29.6001 28.5692 30.6732 29.225C31.7462 29.8808 32.9385 30.1788 34.3097 30.1788C36.3068 30.1788 37.8866 29.4337 39.0789 27.8837L39.4962 30H43.1626V9.13466ZM38.0058 25.5587C37.3203 26.3635 36.426 26.751 35.2933 26.751C34.1607 26.751 33.2366 26.3635 32.551 25.5289C31.8655 24.724 31.5376 23.651 31.5376 22.3394C31.5376 21.0279 31.8655 19.9846 32.551 19.15C33.2366 18.3452 34.1607 17.9279 35.2933 17.9279C36.426 17.9279 37.3203 18.3452 38.0058 19.15C38.6616 19.9846 39.0193 21.0577 39.0193 22.3692C39.0193 23.6808 38.6616 24.7539 38.0058 25.5587ZM49.312 29.225C50.5341 29.8808 51.9649 30.1788 53.5745 30.1788C55.1841 30.1788 56.5851 29.8808 57.8072 29.225C59.0293 28.5692 59.9831 27.675 60.6389 26.4827C61.2947 25.2904 61.6524 23.9192 61.6524 22.3394C61.6524 20.7894 61.2947 19.4183 60.6389 18.226C59.9831 17.0337 59.0293 16.1394 57.8072 15.4837C56.5851 14.8279 55.1841 14.5 53.5745 14.5C51.9649 14.5 50.5341 14.8279 49.312 15.4837C48.0899 16.1394 47.1361 17.0337 46.4803 18.226C45.8245 19.4183 45.4966 20.7894 45.4966 22.3394C45.4966 23.8894 45.8245 25.2606 46.4803 26.4529C47.1361 27.6452 48.0899 28.5692 49.312 29.225ZM56.3466 25.5289C55.661 26.3635 54.737 26.751 53.5745 26.751C52.412 26.751 51.488 26.3635 50.8024 25.5289C50.1168 24.724 49.7889 23.651 49.7889 22.3394C49.7889 21.0279 50.1168 19.9846 50.8024 19.15C51.488 18.3452 52.412 17.9279 53.5745 17.9279C54.737 17.9279 55.661 18.3452 56.3466 19.15C57.0322 19.9846 57.3899 21.0279 57.3899 22.3394C57.3899 23.651 57.0322 24.724 56.3466 25.5289ZM73.2955 14.6789H72.5801C71.4474 14.6789 70.5234 14.8875 69.8676 15.275C69.1821 15.6625 68.6157 16.2289 68.1686 16.9741L67.7811 14.6789H63.9657V30H68.1686V22.4885C68.1686 21.2664 68.4369 20.2827 69.0032 19.5673C69.5398 18.8519 70.434 18.4943 71.6263 18.4943H73.2955V14.6789ZM78.3095 24.9029H74.3153C74.3749 26.5423 75.0903 27.824 76.4316 28.7779C77.7431 29.7317 79.472 30.1788 81.6181 30.1788C82.9893 30.1788 84.1816 30 85.2249 29.5827C86.2681 29.1654 87.0729 28.599 87.6691 27.824C88.2652 27.0789 88.5633 26.2144 88.5633 25.201C88.5633 23.651 87.997 22.5481 86.8941 21.8923C85.7912 21.2366 84.2114 20.7894 82.1547 20.551C81.171 20.4616 80.4854 20.3721 80.0681 20.2827C79.6508 20.2231 79.2931 20.0741 79.0547 19.8952C78.7864 19.7164 78.6672 19.4481 78.6672 19.0904C78.6672 18.6135 78.9056 18.1962 79.3826 17.8981C79.8595 17.6 80.5152 17.451 81.3201 17.451C82.1547 17.451 82.87 17.6596 83.4066 18.0173C83.9431 18.375 84.271 18.8519 84.3306 19.4183H88.3248C88.2056 17.8683 87.52 16.676 86.2383 15.7818C84.9566 14.9173 83.2874 14.4702 81.2008 14.4404C79.8893 14.4404 78.7566 14.6491 77.7729 15.0664C76.7595 15.4837 75.9845 16.0798 75.4479 16.8548C74.9114 17.6298 74.6431 18.4943 74.6431 19.4779C74.6431 20.4914 74.9114 21.2664 75.4479 21.8625C75.9845 22.4587 76.6999 22.9058 77.5941 23.1741C78.4883 23.4721 79.5912 23.6808 80.9624 23.8596C81.946 23.9789 82.6614 24.0981 83.1085 24.1875C83.5258 24.2769 83.8835 24.426 84.122 24.6048C84.3604 24.8135 84.4797 25.1115 84.4797 25.499C84.4797 26.0356 84.2114 26.4529 83.7047 26.751C83.1681 27.049 82.4825 27.1683 81.5883 27.1683C80.6345 27.1683 79.8893 26.9596 79.2931 26.5423C78.697 26.125 78.3691 25.5885 78.3095 24.9029ZM91.3366 18.226C90.6808 19.4183 90.3827 20.7894 90.3827 22.3692C90.3827 23.9491 90.7106 25.3202 91.3664 26.5125C92.0222 27.7048 92.976 28.599 94.2279 29.225C95.4798 29.8808 96.9404 30.1788 98.6693 30.1788C99.9808 30.1788 101.143 29.9702 102.157 29.4933C103.17 29.0163 103.975 28.3904 104.601 27.5558C105.197 26.751 105.585 25.8269 105.763 24.8135H101.62C101.441 25.5289 101.054 26.0952 100.488 26.4529C99.9212 26.8106 99.2058 26.9894 98.3712 26.9894C97.2981 26.9894 96.4337 26.6914 95.8375 26.0356C95.2116 25.4096 94.8539 24.5452 94.7645 23.4125V23.2933H105.883C105.942 22.876 106.002 22.3991 106.002 21.8625C105.972 20.3721 105.614 19.0904 104.959 17.9875C104.303 16.8846 103.379 16.0202 102.187 15.4241C100.994 14.8279 99.6529 14.5 98.1029 14.5C96.5529 14.5 95.2116 14.8279 94.0491 15.4837C92.8866 16.1394 91.9923 17.0337 91.3366 18.226ZM101.799 20.551H94.8539C94.9731 19.6568 95.3308 18.9712 95.9568 18.4346C96.5827 17.8981 97.3577 17.6298 98.2818 17.6298C99.2356 17.6298 100.011 17.8981 100.637 18.4048C101.263 18.9116 101.65 19.6269 101.799 20.551ZM105.971 34.0538H118.013V30.1788H105.971V34.0538Z" fill="white"/>
<path d="M17.6736 19.2693C17.6736 19.4298 17.6736 19.5902 17.6736 19.8309C17.6736 23.6819 14.5687 26.8911 10.6678 26.8911C7.80184 26.8911 5.25429 25.126 4.21936 22.5587C4.21936 22.3983 4.21936 22.318 4.21936 22.1576C4.21936 18.3066 7.32416 15.0974 11.2251 15.0974C14.0911 15.0974 16.559 16.7822 17.6736 19.2693L17.5939 4.82812C7.88144 4.82812 0 12.7708 0 22.5587H4.06012V36.9999C13.7726 36.9999 21.6541 29.0573 21.6541 19.2693H17.6736Z" fill="url(#paint0_linear_1654_14586)"/>
<defs>
<linearGradient id="paint0_linear_1654_14586" x1="10.827" y1="4.82813" x2="10.827" y2="36.9999" gradientUnits="userSpaceOnUse">
<stop stop-color="#5660E5"/>
<stop offset="1" stop-color="#B028C8"/>
</linearGradient>
</defs>
</svg>
