<svg width="176" height="47" viewBox="0 0 176 47" fill="none" xmlns="http://www.w3.org/2000/svg">
<rect x="122.868" y="9.88037" width="52.1698" height="21.2938" rx="6.6543" fill="#7E48D9"/>
<path d="M133.718 25.6767H136.993C137.461 25.6767 137.894 25.6182 138.293 25.5012C138.696 25.3799 139.043 25.2023 139.333 24.9683C139.623 24.7387 139.851 24.4528 140.015 24.1106C140.18 23.7683 140.26 23.3719 140.256 22.9214C140.256 22.6658 140.219 22.4232 140.145 22.1936C140.076 21.9596 139.972 21.7473 139.833 21.5567C139.699 21.3791 139.532 21.221 139.333 21.0823C139.134 20.9394 138.893 20.8311 138.611 20.7574V20.7444C138.802 20.6664 138.969 20.5798 139.112 20.4845C139.259 20.3848 139.391 20.27 139.508 20.1401C139.673 19.9625 139.799 19.7588 139.885 19.5292C139.976 19.2953 140.024 19.044 140.028 18.7754C140.028 18.3335 139.944 17.9523 139.775 17.6317C139.61 17.3068 139.38 17.0404 139.086 16.8324C138.791 16.6245 138.443 16.4707 138.04 16.371C137.637 16.2671 137.206 16.2151 136.746 16.2151H133.718V25.6767ZM135.291 21.4008H137.084C137.34 21.4051 137.567 21.4441 137.767 21.5177C137.966 21.587 138.135 21.6867 138.274 21.8166C138.412 21.9466 138.516 22.1047 138.585 22.291C138.655 22.473 138.689 22.6831 138.689 22.9214C138.689 23.1466 138.646 23.3524 138.559 23.5387C138.477 23.7207 138.358 23.8745 138.202 24.0001C138.059 24.1214 137.886 24.2167 137.682 24.286C137.479 24.3553 137.253 24.39 137.006 24.39H135.291V21.4008ZM135.291 20.2116V17.5082H136.766C137.035 17.5126 137.279 17.5451 137.5 17.6057C137.721 17.662 137.905 17.7552 138.053 17.8852C138.183 17.9891 138.282 18.1234 138.352 18.288C138.425 18.4483 138.462 18.639 138.462 18.8599C138.462 19.0678 138.423 19.252 138.345 19.4123C138.267 19.5726 138.161 19.709 138.027 19.8217C137.879 19.9473 137.697 20.0426 137.481 20.1076C137.268 20.1726 137.035 20.2072 136.779 20.2116H135.291ZM147.287 21.4332V20.1726H143.375V17.5082H147.911V16.2151H141.809V25.6767H147.943V24.39H143.375V21.4332H147.287ZM156.43 17.5082V16.2151H149.061V17.5082H151.959V25.6767H153.512V17.5082H156.43ZM162.304 23.4997L162.941 25.6767H164.559L161.531 16.2151H160.147L157.067 25.6767H158.691L159.335 23.4997H162.304ZM159.731 22.1611L160.836 18.418L161.921 22.1611H159.731Z" fill="white"/>
<path d="M43.1624 9.13466H38.9596V16.5866C37.8567 15.2154 36.3067 14.5 34.3394 14.5C32.9682 14.5 31.7461 14.8279 30.673 15.4837C29.6 16.1394 28.7355 17.0337 28.1394 18.226C27.5432 19.4183 27.2452 20.7596 27.2452 22.3096C27.2452 23.8894 27.5432 25.2606 28.1394 26.4529C28.7355 27.6452 29.6 28.5692 30.673 29.225C31.7461 29.8808 32.9384 30.1788 34.3096 30.1788C36.3067 30.1788 37.8865 29.4337 39.0788 27.8837L39.4961 30H43.1624V9.13466ZM38.0057 25.5587C37.3201 26.3635 36.4259 26.751 35.2932 26.751C34.1605 26.751 33.2365 26.3635 32.5509 25.5289C31.8653 24.724 31.5375 23.651 31.5375 22.3394C31.5375 21.0279 31.8653 19.9846 32.5509 19.15C33.2365 18.3452 34.1605 17.9279 35.2932 17.9279C36.4259 17.9279 37.3201 18.3452 38.0057 19.15C38.6615 19.9846 39.0192 21.0577 39.0192 22.3692C39.0192 23.6808 38.6615 24.7539 38.0057 25.5587ZM49.3119 29.225C50.534 29.8808 51.9648 30.1788 53.5744 30.1788C55.184 30.1788 56.585 29.8808 57.8071 29.225C59.0292 28.5692 59.983 27.675 60.6388 26.4827C61.2946 25.2904 61.6522 23.9192 61.6522 22.3394C61.6522 20.7894 61.2946 19.4183 60.6388 18.226C59.983 17.0337 59.0292 16.1394 57.8071 15.4837C56.585 14.8279 55.184 14.5 53.5744 14.5C51.9648 14.5 50.534 14.8279 49.3119 15.4837C48.0898 16.1394 47.1359 17.0337 46.4802 18.226C45.8244 19.4183 45.4965 20.7894 45.4965 22.3394C45.4965 23.8894 45.8244 25.2606 46.4802 26.4529C47.1359 27.6452 48.0898 28.5692 49.3119 29.225ZM56.3465 25.5289C55.6609 26.3635 54.7369 26.751 53.5744 26.751C52.4119 26.751 51.4878 26.3635 50.8023 25.5289C50.1167 24.724 49.7888 23.651 49.7888 22.3394C49.7888 21.0279 50.1167 19.9846 50.8023 19.15C51.4878 18.3452 52.4119 17.9279 53.5744 17.9279C54.7369 17.9279 55.6609 18.3452 56.3465 19.15C57.0321 19.9846 57.3898 21.0279 57.3898 22.3394C57.3898 23.651 57.0321 24.724 56.3465 25.5289ZM73.2954 14.6789H72.58C71.4473 14.6789 70.5233 14.8875 69.8675 15.275C69.1819 15.6625 68.6156 16.2289 68.1685 16.9741L67.781 14.6789H63.9656V30H68.1685V22.4885C68.1685 21.2664 68.4367 20.2827 69.0031 19.5673C69.5396 18.8519 70.4339 18.4943 71.6262 18.4943H73.2954V14.6789ZM78.3094 24.9029H74.3151C74.3748 26.5423 75.0901 27.824 76.4315 28.7779C77.743 29.7317 79.4719 30.1788 81.618 30.1788C82.9892 30.1788 84.1815 30 85.2247 29.5827C86.268 29.1654 87.0728 28.599 87.669 27.824C88.2651 27.0789 88.5632 26.2144 88.5632 25.201C88.5632 23.651 87.9968 22.5481 86.894 21.8923C85.7911 21.2366 84.2113 20.7894 82.1545 20.551C81.1709 20.4616 80.4853 20.3721 80.068 20.2827C79.6507 20.2231 79.293 20.0741 79.0545 19.8952C78.7863 19.7164 78.667 19.4481 78.667 19.0904C78.667 18.6135 78.9055 18.1962 79.3824 17.8981C79.8594 17.6 80.5151 17.451 81.3199 17.451C82.1545 17.451 82.8699 17.6596 83.4065 18.0173C83.943 18.375 84.2709 18.8519 84.3305 19.4183H88.3247C88.2055 17.8683 87.5199 16.676 86.2382 15.7818C84.9565 14.9173 83.2872 14.4702 81.2007 14.4404C79.8892 14.4404 78.7565 14.6491 77.7728 15.0664C76.7594 15.4837 75.9844 16.0798 75.4478 16.8548C74.9113 17.6298 74.643 18.4943 74.643 19.4779C74.643 20.4914 74.9113 21.2664 75.4478 21.8625C75.9844 22.4587 76.6997 22.9058 77.594 23.1741C78.4882 23.4721 79.5911 23.6808 80.9622 23.8596C81.9459 23.9789 82.6613 24.0981 83.1084 24.1875C83.5257 24.2769 83.8834 24.426 84.1218 24.6048C84.3603 24.8135 84.4795 25.1115 84.4795 25.499C84.4795 26.0356 84.2113 26.4529 83.7045 26.751C83.168 27.049 82.4824 27.1683 81.5882 27.1683C80.6344 27.1683 79.8892 26.9596 79.293 26.5423C78.6969 26.125 78.369 25.5885 78.3094 24.9029ZM91.3365 18.226C90.6807 19.4183 90.3826 20.7894 90.3826 22.3692C90.3826 23.9491 90.7105 25.3202 91.3663 26.5125C92.022 27.7048 92.9759 28.599 94.2278 29.225C95.4797 29.8808 96.9403 30.1788 98.6691 30.1788C99.9807 30.1788 101.143 29.9702 102.157 29.4933C103.17 29.0163 103.975 28.3904 104.601 27.5558C105.197 26.751 105.585 25.8269 105.763 24.8135H101.62C101.441 25.5289 101.054 26.0952 100.487 26.4529C99.9211 26.8106 99.2057 26.9894 98.3711 26.9894C97.298 26.9894 96.4336 26.6914 95.8374 26.0356C95.2115 25.4096 94.8538 24.5452 94.7643 23.4125V23.2933H105.883C105.942 22.876 106.002 22.3991 106.002 21.8625C105.972 20.3721 105.614 19.0904 104.959 17.9875C104.303 16.8846 103.379 16.0202 102.186 15.4241C100.994 14.8279 99.6528 14.5 98.1028 14.5C96.5528 14.5 95.2115 14.8279 94.049 15.4837C92.8865 16.1394 91.9922 17.0337 91.3365 18.226ZM101.799 20.551H94.8538C94.973 19.6568 95.3307 18.9712 95.9566 18.4346C96.5826 17.8981 97.3576 17.6298 98.2816 17.6298C99.2355 17.6298 100.01 17.8981 100.636 18.4048C101.262 18.9116 101.65 19.6269 101.799 20.551ZM105.971 34.0538H118.013V30.1788H105.971V34.0538Z" fill="white"/>
<path d="M17.6736 27.0991C17.6736 27.2757 17.6736 27.4522 17.6736 27.7171C17.6736 31.9544 14.5687 35.4856 10.6678 35.4856C7.80184 35.4856 5.25429 33.5434 4.21936 30.7185C4.21936 30.542 4.21936 30.4537 4.21936 30.2771C4.21936 26.0398 7.32416 22.5086 11.2251 22.5086C14.0911 22.5086 16.559 24.3625 17.6736 27.0991L17.5939 11.209C7.88144 11.209 0 19.9486 0 30.7185H4.06012V46.6087C13.7726 46.6087 21.6541 37.8691 21.6541 27.0991H17.6736Z" fill="url(#paint0_linear_4495_19387)"/>
<defs>
<linearGradient id="paint0_linear_4495_19387" x1="10.827" y1="11.209" x2="10.827" y2="46.6087" gradientUnits="userSpaceOnUse">
<stop stop-color="#5660E5"/>
<stop offset="1" stop-color="#B028C8"/>
</linearGradient>
</defs>
</svg>
