<svg width="41" height="59" viewBox="0 0 41 59" fill="none" xmlns="http://www.w3.org/2000/svg">
<path d="M33.0458 26.4626C33.0458 26.7566 33.0458 27.0506 33.0458 27.4917C33.0458 34.5483 27.3564 40.4289 20.2082 40.4289C14.9565 40.4289 10.2883 37.1946 8.39185 32.4901C8.39185 32.1961 8.39185 32.0491 8.39185 31.7551C8.39185 24.6984 14.0812 18.8178 21.2294 18.8178C26.4811 18.8178 31.0034 21.9051 33.0458 26.4626L32.8999 0C15.1024 0 0.660156 14.5544 0.660156 32.4901H8.10007V58.9527C25.8976 58.9527 40.3398 44.3983 40.3398 26.4626H33.0458Z" fill="url(#paint0_linear_3429_16148)"/>
<defs>
<linearGradient id="paint0_linear_3429_16148" x1="20.5" y1="0" x2="20.5" y2="58.9527" gradientUnits="userSpaceOnUse">
<stop stop-color="#5660E5"/>
<stop offset="1" stop-color="#B028C8"/>
</linearGradient>
</defs>
</svg>
