<svg width="26" height="26" viewBox="0 0 26 26" fill="none" xmlns="http://www.w3.org/2000/svg">
<path d="M5.6877 4.3335H20.3127C22.1901 4.3335 23.7243 5.80298 23.828 7.65454L23.8335 7.85433V18.146C23.8335 20.0234 22.364 21.5576 20.5125 21.6613L20.3127 21.6668H5.6877C3.81025 21.6668 2.27602 20.1973 2.17244 18.3458L2.16687 18.146V7.85433C2.16687 5.97688 3.63636 4.44264 5.48792 4.33906L5.6877 4.3335H20.3127H5.6877ZM22.2085 10.1542L13.3786 14.8025C13.1756 14.9093 12.9386 14.9246 12.7259 14.8483L12.6218 14.8025L3.79187 10.1553V18.146C3.79187 19.1407 4.55791 19.9565 5.53221 20.0355L5.6877 20.0418H20.3127C21.3074 20.0418 22.1232 19.2758 22.2023 18.3015L22.2085 18.146V10.1542ZM20.3127 5.9585H5.6877C4.69302 5.9585 3.87725 6.72453 3.79815 7.69884L3.79187 7.85433V8.31908L13.0002 13.1654L22.2085 8.318V7.85433C22.2085 6.85965 21.4425 6.04387 20.4682 5.96478L20.3127 5.9585Z" fill="white"/>
</svg>
