<svg width="25" height="23" viewBox="0 0 25 23" fill="none" xmlns="http://www.w3.org/2000/svg">
<path d="M0 2.64283C0 1.87678 0.279919 1.2448 0.839732 0.746887C1.39954 0.248955 2.12733 0 3.02303 0C3.90276 0 4.61452 0.245117 5.15835 0.735397C5.71816 1.24098 5.99808 1.89976 5.99808 2.71178C5.99808 3.44717 5.72618 4.05999 5.18234 4.55027C4.62253 5.05585 3.88676 5.30865 2.97505 5.30865H2.95106C2.07133 5.30865 1.35957 5.05585 0.815739 4.55027C0.271905 4.04468 0 3.40886 0 2.64283ZM0.3119 22.7513V7.39993H5.6382V22.7513H0.3119ZM8.58926 22.7513H13.9156V14.1794C13.9156 13.6431 13.9795 13.2295 14.1075 12.9384C14.3314 12.4175 14.6713 11.977 15.1272 11.617C15.583 11.2569 16.1548 11.0769 16.8426 11.0769C18.6341 11.0769 19.5298 12.2336 19.5298 14.5471V22.7513H24.8561V13.9496C24.8561 11.6821 24.2962 9.96233 23.1766 8.79029C22.0569 7.61825 20.5774 7.03223 18.738 7.03223C16.6747 7.03223 15.0672 7.88254 13.9156 9.58314V9.6291H13.8916L13.9156 9.58314V7.39993H8.58926C8.62124 7.89019 8.63724 9.4146 8.63724 11.9732C8.63724 14.5317 8.62124 18.1245 8.58926 22.7513Z" fill="white"/>
</svg>
