<svg width="22" height="12" viewBox="0 0 22 12" fill="none" xmlns="http://www.w3.org/2000/svg">
<path d="M6.58717 0C6.0454 0 5.59888 0.426159 5.59888 0.943359V1.47773C5.59819 1.48514 5.59778 1.49257 5.59766 1.5V2.4H1.55859C1.01679 2.4 0.570312 2.82622 0.570312 3.34336V11.0578C0.570312 11.575 1.01683 12 1.55859 12H15.2963C15.8381 12 16.2846 11.575 16.2846 11.0578V9.6H20.3249C20.8667 9.6 21.3132 9.17495 21.3132 8.65781V3.3V1.5V0.943359C21.3132 0.426159 20.8667 0 20.3249 0H6.58717ZM6.58717 0.6H20.3249C20.5293 0.6 20.6846 0.748179 20.6846 0.943359V1.2H6.22746V0.943359C6.22746 0.748179 6.38271 0.6 6.58717 0.6ZM6.22746 1.8H20.6846V3H16.3079L16.303 2.72578C16.3017 2.64724 16.2682 2.57231 16.2097 2.51709C16.1511 2.46187 16.0723 2.43077 15.99 2.43047L15.5283 2.4293C15.4534 2.41165 15.3766 2.4 15.2963 2.4H6.22746V1.8ZM1.55859 3H5.91071L15.4436 3.02813C15.5707 3.08008 15.656 3.19891 15.656 3.34336V11.0578C15.656 11.253 15.5008 11.4 15.2963 11.4H1.55859C1.35414 11.4 1.19888 11.253 1.19888 11.0578V3.34336C1.19888 3.14818 1.35417 3 1.55859 3ZM16.2846 3.6H20.6846V8.65781C20.6846 8.85287 20.5293 9 20.3249 9H16.2846V7.16133C16.7248 7.246 17.1844 7.15168 17.5442 6.8918C17.8076 7.08198 18.1309 7.2 18.4846 7.2C19.3488 7.2 20.056 6.52488 20.056 5.7C20.056 4.87512 19.3488 4.2 18.4846 4.2C18.1316 4.2 17.8086 4.31635 17.5454 4.50586C17.27 4.30649 16.9318 4.19645 16.5805 4.2C16.4806 4.2 16.382 4.21212 16.2846 4.23164V3.6ZM16.5878 4.79883V4.8C16.7828 4.8 16.9491 4.893 17.1022 5.00391C16.9857 5.21309 16.9132 5.4478 16.9132 5.7C16.9132 5.95648 16.9882 6.19374 17.1084 6.40547C16.8939 6.54531 16.6414 6.59147 16.384 6.5332L16.4061 4.83633C16.4671 4.82373 16.5251 4.79943 16.5878 4.79883ZM18.4846 4.8C19.009 4.8 19.4275 5.19942 19.4275 5.7C19.4275 6.20064 19.009 6.6 18.4846 6.6C18.2255 6.6 17.9925 6.50233 17.8229 6.34336L17.7897 6.30703L17.7775 6.29297C17.7765 6.2919 17.776 6.29053 17.775 6.28945C17.7013 6.2089 17.6437 6.11723 17.6044 6.01875C17.6033 6.01612 17.6029 6.01319 17.6019 6.01055C17.5635 5.91181 17.5421 5.8069 17.5417 5.7V5.69883V5.69766C17.5422 5.59125 17.5638 5.4876 17.6019 5.38945C17.603 5.38646 17.6032 5.38306 17.6044 5.38008C17.6437 5.28187 17.7013 5.18987 17.775 5.10938C17.776 5.1083 17.7765 5.10693 17.7775 5.10586L17.7897 5.0918L17.8229 5.05547C17.9925 4.89649 18.2255 4.8 18.4846 4.8ZM8.42746 4.80117C7.04261 4.80117 5.91319 5.87814 5.91317 7.2C5.91315 8.52192 7.04258 9.6 8.42746 9.6C9.81233 9.6 10.9418 8.52192 10.9417 7.2C10.9417 5.87814 9.8123 4.80117 8.42746 4.80117ZM4.02746 5.4V6H5.2846V5.4H4.02746ZM11.5703 5.4V6H12.8275V5.4H11.5703ZM8.42746 5.40117C9.4726 5.40117 10.3132 6.20349 10.3132 7.20117C10.3132 8.19879 9.47262 9 8.42746 9C7.38229 9 6.54173 8.19879 6.54174 7.20117C6.54176 6.20349 7.38231 5.40117 8.42746 5.40117ZM2.77031 6.9V7.5H4.65603V6.9H2.77031ZM12.1989 6.9V7.5H14.0846V6.9H12.1989ZM4.02746 8.4V9H5.2846V8.4H4.02746ZM11.5703 8.4V9H12.8275V8.4H11.5703Z" fill="white"/>
</svg>
