<svg width="20" height="21" viewBox="0 0 20 21" fill="none" xmlns="http://www.w3.org/2000/svg">
<path d="M5.72424 5.96582C5.23943 5.96582 4.83984 6.34718 4.83984 6.81002V7.28822C4.83922 7.29485 4.83885 7.3015 4.83874 7.30815V8.11355H1.22424C0.739395 8.11355 0.339844 8.49497 0.339844 8.95775V15.8613C0.339844 16.3241 0.739426 16.7045 1.22424 16.7045H13.5179C14.0028 16.7045 14.4023 16.3241 14.4023 15.8613V14.5567H18.0179C18.5028 14.5567 18.9023 14.1764 18.9023 13.7136V8.91895V7.30815V6.81002C18.9023 6.34718 18.5028 5.96582 18.0179 5.96582H5.72424ZM5.72424 6.50275H18.0179C18.2009 6.50275 18.3398 6.63536 18.3398 6.81002V7.03968H5.40234V6.81002C5.40234 6.63536 5.54128 6.50275 5.72424 6.50275ZM5.40234 7.57662H18.3398V8.65048H14.4232L14.4188 8.40508C14.4177 8.3348 14.3877 8.26774 14.3353 8.21833C14.2829 8.16892 14.2123 8.14109 14.1387 8.14081L13.7256 8.13976C13.6585 8.12398 13.5898 8.11355 13.5179 8.11355H5.40234V7.57662ZM1.22424 8.65048H5.1189L13.6498 8.67565C13.7635 8.72214 13.8398 8.82848 13.8398 8.95775V15.8613C13.8398 16.036 13.7009 16.1675 13.5179 16.1675H1.22424C1.04128 16.1675 0.902344 16.036 0.902344 15.8613V8.95775C0.902344 8.78308 1.04131 8.65048 1.22424 8.65048ZM14.4023 9.18741H18.3398V13.7136C18.3398 13.8881 18.2009 14.0198 18.0179 14.0198H14.4023V12.3744C14.7963 12.4502 15.2076 12.3658 15.5295 12.1332C15.7653 12.3034 16.0546 12.409 16.3711 12.409C17.1444 12.409 17.7773 11.8048 17.7773 11.0667C17.7773 10.3285 17.1444 9.72434 16.3711 9.72434C16.0552 9.72434 15.7661 9.82846 15.5306 9.99805C15.2842 9.81964 14.9815 9.72117 14.6671 9.72434C14.5778 9.72434 14.4895 9.73519 14.4023 9.75266V9.18741ZM14.6737 10.2602V10.2613C14.8481 10.2613 14.997 10.3445 15.134 10.4437C15.0298 10.6309 14.9648 10.841 14.9648 11.0667C14.9648 11.2962 15.032 11.5085 15.1395 11.698C14.9476 11.8231 14.7217 11.8644 14.4913 11.8123L14.5111 10.2938C14.5657 10.2825 14.6176 10.2608 14.6737 10.2602ZM16.3711 10.2613C16.8404 10.2613 17.2148 10.6187 17.2148 11.0667C17.2148 11.5147 16.8404 11.8721 16.3711 11.8721C16.1393 11.8721 15.9308 11.7847 15.7789 11.6424L15.7493 11.6099L15.7383 11.5973C15.7374 11.5964 15.737 11.5951 15.7361 11.5942C15.6701 11.5221 15.6186 11.44 15.5834 11.3519C15.5824 11.3496 15.5821 11.3469 15.5812 11.3446C15.5468 11.2562 15.5277 11.1623 15.5273 11.0667V11.0656V11.0646C15.5277 10.9694 15.5471 10.8766 15.5812 10.7888C15.5822 10.7861 15.5823 10.783 15.5834 10.7804C15.6186 10.6925 15.6702 10.6102 15.7361 10.5381C15.737 10.5372 15.7374 10.5359 15.7383 10.535L15.7493 10.5224L15.7789 10.4899C15.9308 10.3476 16.1393 10.2613 16.3711 10.2613ZM7.37109 10.2623C6.13181 10.2623 5.12111 11.2261 5.12109 12.409C5.12107 13.592 6.13179 14.5567 7.37109 14.5567C8.6104 14.5567 9.62111 13.592 9.62109 12.409C9.62108 11.2261 8.61037 10.2623 7.37109 10.2623ZM3.43359 10.7982V11.3351H4.55859V10.7982H3.43359ZM10.1836 10.7982V11.3351H11.3086V10.7982H10.1836ZM7.37109 10.7993C8.30638 10.7993 9.05858 11.5172 9.05859 12.4101C9.05861 13.3028 8.3064 14.0198 7.37109 14.0198C6.43579 14.0198 5.68358 13.3028 5.68359 12.4101C5.68361 11.5172 6.43581 10.7993 7.37109 10.7993ZM2.30859 12.1405V12.6775H3.99609V12.1405H2.30859ZM10.7461 12.1405V12.6775H12.4336V12.1405H10.7461ZM3.43359 13.4829V14.0198H4.55859V13.4829H3.43359ZM10.1836 13.4829V14.0198H11.3086V13.4829H10.1836Z" fill="white"/>
</svg>
