<svg width="37" height="37" viewBox="0 0 37 37" fill="none" xmlns="http://www.w3.org/2000/svg">
<g clip-path="url(#clip0_4495_19398)">
<path d="M31.8478 29.1739L26.6503 24.0672C28.3272 21.9619 29.2372 19.3622 29.2338 16.6858C29.2338 14.3023 28.5165 11.9723 27.1727 9.99047C25.8289 8.00865 23.9189 6.46401 21.6843 5.55188C19.4496 4.63974 16.9907 4.40109 14.6184 4.86609C12.2461 5.33109 10.067 6.47886 8.35662 8.16427C6.64628 9.84967 5.48153 11.997 5.00965 14.3347C4.53777 16.6724 4.77996 19.0955 5.70558 21.2976C6.63121 23.4997 8.1987 25.3819 10.2098 26.7061C12.221 28.0303 14.5854 28.7371 17.0042 28.7371C19.7202 28.7404 22.3584 27.8438 24.4948 26.1913L29.6771 31.313C29.8192 31.4542 29.9883 31.5663 30.1746 31.6428C30.3609 31.7193 30.5607 31.7586 30.7625 31.7586C30.9643 31.7586 31.1641 31.7193 31.3504 31.6428C31.5367 31.5663 31.7057 31.4542 31.8478 31.313C31.9911 31.173 32.1049 31.0064 32.1825 30.8228C32.2601 30.6393 32.3 30.4424 32.3 30.2435C32.3 30.0446 32.2601 29.8477 32.1825 29.6642C32.1049 29.4806 31.9911 29.314 31.8478 29.1739ZM7.83205 16.6858C7.83205 14.8982 8.36999 13.1507 9.37784 11.6643C10.3857 10.1779 11.8182 9.01946 13.4942 8.33536C15.1702 7.65126 17.0144 7.47227 18.7936 7.82102C20.5728 8.16977 22.2072 9.0306 23.4899 10.2947C24.7727 11.5587 25.6462 13.1692 26.0001 14.9225C26.3541 16.6758 26.1724 18.4931 25.4782 20.1447C24.784 21.7962 23.6084 23.2079 22.1 24.201C20.5916 25.1942 18.8183 25.7243 17.0042 25.7243C14.5716 25.7243 12.2386 24.772 10.5185 23.077C8.7984 21.3819 7.83205 19.083 7.83205 16.6858Z" fill="white"/>
</g>
<defs>
<clipPath id="clip0_4495_19398">
<rect width="36.6887" height="36.1538" fill="white" transform="translate(0.189209 0.115234)"/>
</clipPath>
</defs>
</svg>
