<svg width="27" height="27" viewBox="0 0 27 27" fill="none" xmlns="http://www.w3.org/2000/svg">
<path d="M6.40532 13.501L2.58675 3.68178C2.32099 2.99837 2.98737 2.34482 3.64658 2.57713L3.75047 2.6213L24.0004 12.7462C24.5835 13.0378 24.62 13.836 24.1098 14.1909L24.0004 14.2557L3.75047 24.3807C3.09462 24.7086 2.38214 24.1056 2.5524 23.4277L2.58675 23.3201L6.40532 13.501L2.58675 3.68178L6.40532 13.501ZM4.95236 5.10892L7.88748 12.6566L15.3435 12.6573C15.7707 12.6573 16.1237 12.9746 16.1795 13.3865L16.1873 13.501C16.1873 13.9282 15.8698 14.2812 15.458 14.337L15.3435 14.3448L7.88748 14.3441L4.95236 21.8931L21.7365 13.501L4.95236 5.10892Z" fill="#343141"/>
</svg>
