<svg width="18" height="18" viewBox="0 0 18 18" fill="none" xmlns="http://www.w3.org/2000/svg">
<path d="M6.37669 8.62462C6.79179 8.62462 7.1283 8.96115 7.1283 9.37627C7.1283 9.7914 6.79179 10.1278 6.37669 10.1278C5.96159 10.1278 5.62508 9.7914 5.62508 9.37627C5.62508 8.96115 5.96159 8.62462 6.37669 8.62462ZM9.00008 3.26527V7.87462L9.00045 8.25337L14.5816 8.25262L13.2898 6.95983C13.0901 6.76009 13.072 6.44759 13.2354 6.22741L13.2899 6.16433C13.4897 5.96467 13.8021 5.94656 14.0223 6.10999L14.0854 6.16447L16.3328 8.41267C16.5323 8.61225 16.5506 8.9244 16.3876 9.1446L16.3332 9.20767L14.0858 11.4602C13.8664 11.6802 13.5102 11.6806 13.2903 11.4612C13.0904 11.2617 13.0718 10.9492 13.235 10.7288L13.2894 10.6657L14.5741 9.37762L9.00045 9.37837L9.00008 14.4371C9.00008 14.7869 8.68418 15.0519 8.33978 14.9911L1.96474 13.8651C1.69598 13.8176 1.50008 13.5841 1.50008 13.3111V4.31215C1.50008 4.03666 1.69958 3.80172 1.97143 3.75708L8.34645 2.71021C8.6889 2.65397 9.00008 2.91823 9.00008 3.26527ZM7.87508 3.92767L2.62508 4.78981V12.8393L7.87508 13.7666V3.92767ZM9.75008 13.8756L10.324 13.8757L10.4003 13.8706C10.6752 13.8332 10.8869 13.5974 10.8865 13.3123L10.8811 10.1246H9.75008V13.8756ZM9.75158 7.49965L9.75008 6.54365V3.74964L10.3091 3.74965C10.5935 3.74965 10.8287 3.96079 10.8663 4.23498L10.8716 4.31122L10.8766 7.49965H9.75158Z" fill="white"/>
</svg>
